<?xml version="1.0" encoding="UTF-8"?> <svg xmlns="http://www.w3.org/2000/svg" id="Layer_1" data-name="Layer 1" viewBox="0 0 564.76 144.48"><defs><style>.cls-1{fill:#1a5632;}.cls-2{fill:#93d500;}.cls-3{fill:#bd9a5f;}.cls-4{fill:#fff;}.cls-5{fill:#db0032;}.cls-6{fill:#ff6c0e;}</style></defs><path class="cls-1" d="M184.47,96.42v1.14a1.72,1.72,0,0,1-1.88,1.87H170.05v8.36h10.72a1.68,1.68,0,0,1,1.87,1.83v.87a1.72,1.72,0,0,1-1.87,1.87H170.05v10.88a1.65,1.65,0,0,1-1.82,1.83h-2.09a1.65,1.65,0,0,1-1.83-1.83V96.42a1.65,1.65,0,0,1,1.83-1.82h16.45A1.69,1.69,0,0,1,184.47,96.42Z" transform="translate(-5.49 -5.97)"></path><path class="cls-1" d="M184.72,122.94,195,96.08a2.1,2.1,0,0,1,2.14-1.48H200a2.09,2.09,0,0,1,2.13,1.48l10.45,26.86c.48,1.26-.09,2.13-1.44,2.13h-2.09a2.11,2.11,0,0,1-2.17-1.48l-1.7-4.48H192l-1.7,4.48a2,2,0,0,1-2.09,1.48h-2.09C184.81,125.07,184.25,124.2,184.72,122.94Zm19.12-8.4-5.23-14.15-5.22,14.15Z" transform="translate(-5.49 -5.97)"></path><path class="cls-1" d="M228.26,113.93h-5v9.31a1.65,1.65,0,0,1-1.83,1.83h-2.09a1.65,1.65,0,0,1-1.83-1.83V96.42a1.65,1.65,0,0,1,1.83-1.82h11.49c6.23,0,9.71,4.52,9.71,9.88,0,4.53-2.52,8.14-6.92,9.14.3,3.22,2.18,7.23,5.14,7.23a4.21,4.21,0,0,0,2.09-.44c1.09-.43,1.7-.26,2.22.79l.3.61c.48,1,.4,1.91-.56,2.48a9.08,9.08,0,0,1-4.79,1.26C230.57,125.55,228.56,117.45,228.26,113.93Zm1.61-4.36c2.92,0,4.75-2.13,4.75-5s-1.88-5.09-4.75-5.09h-6.66v10.14Z" transform="translate(-5.49 -5.97)"></path><path class="cls-1" d="M246.58,123.11l2.53-26.77A1.7,1.7,0,0,1,251,94.6h2.74A2.11,2.11,0,0,1,255.86,96l8.62,20.81L273.05,96a2.11,2.11,0,0,1,2.14-1.43h2.74a1.69,1.69,0,0,1,1.87,1.74l2.53,26.77a1.61,1.61,0,0,1-1.79,2h-2a1.74,1.74,0,0,1-1.92-1.74L274.93,104l-7.88,19.29a2.09,2.09,0,0,1-2.14,1.43H264a2.07,2.07,0,0,1-2.13-1.43L254,104l-1.65,19.33a1.74,1.74,0,0,1-1.91,1.74h-2A1.61,1.61,0,0,1,246.58,123.11Z" transform="translate(-5.49 -5.97)"></path><path class="cls-1" d="M294.51,99.43v8.36h10.63a1.68,1.68,0,0,1,1.87,1.83v.87a1.72,1.72,0,0,1-1.87,1.87H294.51v7.88H307a1.69,1.69,0,0,1,1.83,1.87v1.13a1.66,1.66,0,0,1-1.83,1.83H290.6a1.65,1.65,0,0,1-1.83-1.83V96.42a1.65,1.65,0,0,1,1.83-1.82H307a1.65,1.65,0,0,1,1.83,1.82v1.14A1.69,1.69,0,0,1,307,99.43Z" transform="translate(-5.49 -5.97)"></path><path class="cls-1" d="M325.51,113.93h-5.05v9.31a1.65,1.65,0,0,1-1.83,1.83h-2.09a1.65,1.65,0,0,1-1.83-1.83V96.42a1.65,1.65,0,0,1,1.83-1.82H328c6.23,0,9.71,4.52,9.71,9.88,0,4.53-2.52,8.14-6.92,9.14.3,3.22,2.18,7.23,5.14,7.23a4.21,4.21,0,0,0,2.09-.44c1.09-.43,1.7-.26,2.22.79l.3.61c.48,1,.4,1.91-.56,2.48a9.08,9.08,0,0,1-4.79,1.26C327.82,125.55,325.81,117.45,325.51,113.93Zm1.61-4.36c2.92,0,4.75-2.13,4.75-5s-1.88-5.09-4.75-5.09h-6.66v10.14Z" transform="translate(-5.49 -5.97)"></path><path class="cls-1" d="M342.88,119.15c-.48-1.13.13-2,1.3-2.22l1.53-.39c1.13-.26,1.69.17,2.3,1.22a6.63,6.63,0,0,0,5.92,3c3.49,0,5.62-1.61,5.62-3.92,0-1.91-1.52-3.22-3.92-4.09l-4.22-1.48c-4.7-1.52-7.62-4.61-7.62-8.36,0-5.44,4.7-8.79,10.32-8.79,4.74,0,8.14,2.22,9.66,5.66a1.54,1.54,0,0,1-1.17,2.3l-1.4.4a1.83,1.83,0,0,1-2.35-1.09c-.87-1.66-2.48-2.44-4.7-2.44-2.48,0-4.66,1.31-4.66,3.66,0,1.17.48,2.61,3.53,3.74l4.27,1.57c5.53,1.78,7.83,5.09,7.88,8.62,0,5.7-4.7,9-11.15,9C348.45,125.55,344.49,123,342.88,119.15Z" transform="translate(-5.49 -5.97)"></path><path class="cls-1" d="M370,105.39l-.17-.39a.82.82,0,0,1,.3-1.26,5.06,5.06,0,0,0,2.66-4.27,4.44,4.44,0,0,1-.74.13,2.67,2.67,0,0,1-2.7-2.78c0-1.79,1.18-3.23,3.48-3.23,2.79,0,3.49,2.57,3.49,3.92a9,9,0,0,1-5,8.23A.86.86,0,0,1,370,105.39Z" transform="translate(-5.49 -5.97)"></path><path class="cls-1" d="M391.33,123.11l2.52-26.77a1.7,1.7,0,0,1,1.87-1.74h2.75A2.09,2.09,0,0,1,400.6,96l8.62,20.81L417.8,96a2.09,2.09,0,0,1,2.13-1.43h2.74a1.7,1.7,0,0,1,1.88,1.74l2.52,26.77a1.61,1.61,0,0,1-1.78,2h-2.05a1.75,1.75,0,0,1-1.92-1.74L419.67,104l-7.88,19.29a2.08,2.08,0,0,1-2.13,1.43h-.92a2.07,2.07,0,0,1-2.13-1.43L398.73,104l-1.66,19.33a1.73,1.73,0,0,1-1.91,1.74h-2.05A1.61,1.61,0,0,1,391.33,123.11Z" transform="translate(-5.49 -5.97)"></path><path class="cls-1" d="M430.9,122.94l10.32-26.86a2.09,2.09,0,0,1,2.13-1.48h2.83a2.09,2.09,0,0,1,2.13,1.48l10.45,26.86c.48,1.26-.09,2.13-1.44,2.13h-2.09a2.12,2.12,0,0,1-2.17-1.48l-1.7-4.48H438.21l-1.7,4.48a2,2,0,0,1-2.09,1.48h-2.09C431,125.07,430.42,124.2,430.9,122.94Zm19.11-8.4-5.22-14.15-5.23,14.15Z" transform="translate(-5.49 -5.97)"></path><path class="cls-1" d="M474.43,113.93h-5.05v9.31a1.65,1.65,0,0,1-1.83,1.83h-2.09a1.66,1.66,0,0,1-1.83-1.83V96.42a1.65,1.65,0,0,1,1.83-1.82H477c6.22,0,9.71,4.52,9.71,9.88,0,4.53-2.53,8.14-6.93,9.14.31,3.22,2.18,7.23,5.14,7.23a4.21,4.21,0,0,0,2.09-.44c1.09-.43,1.7-.26,2.22.79l.31.61c.47,1,.39,1.91-.57,2.48a9.06,9.06,0,0,1-4.79,1.26C476.74,125.55,474.74,117.45,474.43,113.93Zm1.61-4.36c2.92,0,4.75-2.13,4.75-5s-1.87-5.09-4.75-5.09h-6.66v10.14Z" transform="translate(-5.49 -5.97)"></path><path class="cls-1" d="M504.77,119.5l-5.18-8.23v12a1.65,1.65,0,0,1-1.83,1.83h-2.09a1.66,1.66,0,0,1-1.83-1.83V96.42a1.65,1.65,0,0,1,1.83-1.82h2.09a1.65,1.65,0,0,1,1.83,1.82V109l9-13.14a2.36,2.36,0,0,1,2.22-1.22h2.92c1.3,0,1.52.87.78,2L505.08,110l4.87,7.27c1.35,2.22,2.75,3.57,4.4,3.52a5,5,0,0,0,1.61-.3,1.44,1.44,0,0,1,2.09.92l.35.74a1.7,1.7,0,0,1-.91,2.56,9.51,9.51,0,0,1-3.92.83C509.34,125.55,506.47,122.59,504.77,119.5Z" transform="translate(-5.49 -5.97)"></path><path class="cls-1" d="M528.15,99.43v8.36h10.62a1.69,1.69,0,0,1,1.88,1.83v.87a1.72,1.72,0,0,1-1.88,1.87H528.15v7.88h12.5a1.68,1.68,0,0,1,1.82,1.87v1.13a1.65,1.65,0,0,1-1.82,1.83H524.23a1.66,1.66,0,0,1-1.83-1.83V96.42a1.65,1.65,0,0,1,1.83-1.82h16.42a1.64,1.64,0,0,1,1.82,1.82v1.14a1.68,1.68,0,0,1-1.82,1.87Z" transform="translate(-5.49 -5.97)"></path><path class="cls-1" d="M570.25,96.42v1.14a1.69,1.69,0,0,1-1.83,1.87h-7.75v23.81a1.65,1.65,0,0,1-1.83,1.83h-2.05a1.65,1.65,0,0,1-1.82-1.83V99.43h-7.71a1.68,1.68,0,0,1-1.83-1.87V96.42a1.65,1.65,0,0,1,1.83-1.82h21.16A1.65,1.65,0,0,1,570.25,96.42Z" transform="translate(-5.49 -5.97)"></path><path class="cls-1" d="M267.36,72.73c0-6.09,4.5-11.28,11.9-11.28a11.31,11.31,0,0,1,6.56,1.91,1.2,1.2,0,0,1,.31,1.84l-.5.72c-.47.72-1.06.78-1.84.34a9.42,9.42,0,0,0-4.53-1.19,7.66,7.66,0,1,0,0,15.31,9.42,9.42,0,0,0,4.53-1.19c.78-.43,1.37-.37,1.84.35l.5.72c.47.71.44,1.28-.16,1.71a11.26,11.26,0,0,1-6.71,2C271.86,84,267.36,78.82,267.36,72.73Z" transform="translate(-5.49 -5.97)"></path><path class="cls-1" d="M288.32,75.73A8.58,8.58,0,1,1,296.88,84,8.36,8.36,0,0,1,288.32,75.73Zm13.25,0a4.69,4.69,0,1,0-4.69,4.87A4.78,4.78,0,0,0,301.57,75.76Z" transform="translate(-5.49 -5.97)"></path><path class="cls-1" d="M308.69,82.35V69.14A1.21,1.21,0,0,1,310,67.79h1.37a1.23,1.23,0,0,1,1.34,1.35V70.6a4.62,4.62,0,0,1,4.63-3.15,5,5,0,0,1,4.78,3,5.44,5.44,0,0,1,5.24-3c3.94,0,5.94,2.84,5.94,7.18v7.72A1.19,1.19,0,0,1,332,83.66h-1.38a1.21,1.21,0,0,1-1.34-1.31V74.73c0-2.69-1.13-3.91-2.69-3.91-1.4,0-3.47,1-3.56,4.78v6.75a1.21,1.21,0,0,1-1.34,1.31h-1.38A1.19,1.19,0,0,1,319,82.35V74.73c0-2.69-1.15-3.91-2.72-3.91s-3.56,1.16-3.56,5v6.5a1.21,1.21,0,0,1-1.34,1.31H310A1.19,1.19,0,0,1,308.69,82.35Z" transform="translate(-5.49 -5.97)"></path><path class="cls-1" d="M336.31,75.73A8.58,8.58,0,1,1,344.87,84,8.36,8.36,0,0,1,336.31,75.73Zm13.25,0a4.69,4.69,0,1,0-4.69,4.87A4.78,4.78,0,0,0,349.56,75.76Z" transform="translate(-5.49 -5.97)"></path><path class="cls-1" d="M355,82l5.49-6.59-5-6c-.72-.88-.38-1.63.78-1.63h1.47a2,2,0,0,1,1.59.78L363.06,73l3.65-4.38a2,2,0,0,1,1.62-.78h1.47c1.16,0,1.5.75.78,1.63l-5,6L371.08,82c.72.88.38,1.63-.75,1.63h-1.5a2,2,0,0,1-1.62-.75l-4.15-5-4.19,5a1.94,1.94,0,0,1-1.62.75h-1.5C354.62,83.66,354.28,82.91,355,82Z" transform="translate(-5.49 -5.97)"></path><path class="cls-1" d="M387,82.6l-6.75-19.27c-.31-.91.1-1.53,1.07-1.53h1.56a1.45,1.45,0,0,1,1.5,1.09l5,15.52,5-15.52a1.45,1.45,0,0,1,1.5-1.09h1.59c.94,0,1.35.62,1,1.53L391.71,82.6a1.42,1.42,0,0,1-1.5,1.06h-1.69A1.44,1.44,0,0,1,387,82.6Z" transform="translate(-5.49 -5.97)"></path><path class="cls-1" d="M398.8,75.73c0-4.63,3.16-8.28,7.75-8.28a6.22,6.22,0,0,1,5.37,2.72v-1a1.21,1.21,0,0,1,1.31-1.35h1.37A1.24,1.24,0,0,1,416,69.14V82.35a1.21,1.21,0,0,1-1.35,1.31h-1.37a1.19,1.19,0,0,1-1.31-1.31V81.29A6.24,6.24,0,0,1,406.55,84C402,84,398.8,80.35,398.8,75.73Zm13.18,0c0-2.85-1.87-4.94-4.65-4.94s-4.5,2.25-4.5,4.94,1.66,4.93,4.5,4.93S412,78.57,412,75.73Z" transform="translate(-5.49 -5.97)"></path><path class="cls-1" d="M420.3,82.35v-20a1.18,1.18,0,0,1,1.31-1.31H423a1.19,1.19,0,0,1,1.32,1.31v20A1.19,1.19,0,0,1,423,83.66h-1.4A1.18,1.18,0,0,1,420.3,82.35Z" transform="translate(-5.49 -5.97)"></path><path class="cls-1" d="M428.76,82.35v-20a1.19,1.19,0,0,1,1.31-1.31h1.41a1.19,1.19,0,0,1,1.31,1.31v20a1.19,1.19,0,0,1-1.31,1.31h-1.41A1.19,1.19,0,0,1,428.76,82.35Z" transform="translate(-5.49 -5.97)"></path><path class="cls-1" d="M436.07,75.79a8.29,8.29,0,0,1,8.63-8.34c4.24,0,7.93,2.56,8.24,7.62.06.81-.47,1.25-1.31,1.25H440c-.06,2.4,2.06,4.37,5.34,4.37a7.15,7.15,0,0,0,3.9-1.15,1.33,1.33,0,0,1,1.85.25l.28.34a1.26,1.26,0,0,1-.25,2,9.62,9.62,0,0,1-6,1.87C439.51,84,436.07,80.32,436.07,75.79Zm13-2a4,4,0,0,0-4.31-3.12,4.48,4.48,0,0,0-4.59,3.12Z" transform="translate(-5.49 -5.97)"></path><path class="cls-1" d="M457.73,89.13l2.52-6.31-6-13.47c-.41-.9,0-1.56,1-1.56H457a1.46,1.46,0,0,1,1.5,1.07l3.81,9.65L466,68.86a1.53,1.53,0,0,1,1.56-1.07h1.66c1,0,1.4.63,1,1.56l-8.75,20.31a1.49,1.49,0,0,1-1.53,1h-1.15C457.76,90.66,457.35,90,457.73,89.13Z" transform="translate(-5.49 -5.97)"></path><path class="cls-1" d="M171.68,81.49v.65a.71.71,0,0,1-.79.79h-.84a.73.73,0,0,1-.81-.79V70a.73.73,0,0,1,.81-.79h.84a.71.71,0,0,1,.79.79v4.72a3.78,3.78,0,0,1,3.26-1.65,5,5,0,0,1,0,10A3.78,3.78,0,0,1,171.68,81.49Zm5.51-3.36a2.74,2.74,0,0,0-2.73-3,3,3,0,0,0,0,6A2.73,2.73,0,0,0,177.19,78.13Z" transform="translate(-5.49 -5.97)"></path><path class="cls-1" d="M181.47,78.81V74.13a.74.74,0,0,1,.81-.81h.83a.73.73,0,0,1,.8.81v4.56c0,1.65.72,2.41,1.72,2.41s2.48-.74,2.48-3.07v-3.9a.75.75,0,0,1,.82-.81h.83a.73.73,0,0,1,.79.81v8a.71.71,0,0,1-.79.79h-.83a.73.73,0,0,1-.82-.79v-.91a3,3,0,0,1-3.05,1.91C182.72,83.14,181.47,81.44,181.47,78.81Z" transform="translate(-5.49 -5.97)"></path><path class="cls-1" d="M194.59,86.25l1.53-3.83-3.62-8.16c-.24-.55,0-.94.63-.94h1a.88.88,0,0,1,.91.64l2.31,5.85L199.58,74a.93.93,0,0,1,.95-.64h1c.59,0,.86.38.61.94l-5.3,12.31a.9.9,0,0,1-.93.6h-.7C194.61,87.17,194.36,86.8,194.59,86.25Z" transform="translate(-5.49 -5.97)"></path><path class="cls-1" d="M208.31,82.14V70a.72.72,0,0,1,.8-.79H210a.71.71,0,0,1,.79.79v12.1a.71.71,0,0,1-.79.79h-.85A.72.72,0,0,1,208.31,82.14Z" transform="translate(-5.49 -5.97)"></path><path class="cls-1" d="M212.74,78.13a5.2,5.2,0,1,1,5.19,5A5.06,5.06,0,0,1,212.74,78.13Zm8,0a2.84,2.84,0,1,0-2.84,3A2.9,2.9,0,0,0,220.77,78.14Z" transform="translate(-5.49 -5.97)"></path><path class="cls-1" d="M224.42,78.2c0-2.8,2-5.09,5.49-5.09a5.86,5.86,0,0,1,3,.81.69.69,0,0,1,.19,1.12l-.23.28c-.3.42-.64.44-1.11.21a3.85,3.85,0,0,0-1.67-.38,3,3,0,1,0,0,6,4.18,4.18,0,0,0,1.67-.38c.47-.23.83-.21,1.11.19l.23.3c.3.42.21.91-.42,1.23a5.65,5.65,0,0,1-2.72.68C226.54,83.14,224.42,81,224.42,78.2Z" transform="translate(-5.49 -5.97)"></path><path class="cls-1" d="M234.43,78.13a4.72,4.72,0,0,1,4.7-5,3.75,3.75,0,0,1,3.25,1.65v-.63a.73.73,0,0,1,.8-.81H244a.74.74,0,0,1,.81.81v8a.73.73,0,0,1-.81.79h-.83a.72.72,0,0,1-.8-.79v-.65a3.75,3.75,0,0,1-3.25,1.65A4.72,4.72,0,0,1,234.43,78.13Zm8,0a2.8,2.8,0,0,0-2.82-3,3,3,0,0,0,0,6A2.8,2.8,0,0,0,242.42,78.13Z" transform="translate(-5.49 -5.97)"></path><path class="cls-1" d="M247.46,82.14V70a.71.71,0,0,1,.79-.79h.85a.72.72,0,0,1,.8.79v12.1a.72.72,0,0,1-.8.79h-.85A.71.71,0,0,1,247.46,82.14Z" transform="translate(-5.49 -5.97)"></path><path class="cls-1" d="M257.11,77.67a1.55,1.55,0,0,1,1.61-1.55,1.55,1.55,0,1,1,0,3.09A1.54,1.54,0,0,1,257.11,77.67Z" transform="translate(-5.49 -5.97)"></path><path class="cls-1" d="M475.11,77.67a1.55,1.55,0,0,1,1.61-1.55,1.55,1.55,0,1,1,0,3.09A1.54,1.54,0,0,1,475.11,77.67Z" transform="translate(-5.49 -5.97)"></path><path class="cls-1" d="M484.86,78.16a5,5,0,0,1,5.22-5,4.71,4.71,0,0,1,5,4.62c0,.49-.29.75-.8.75h-7.06c0,1.46,1.25,2.66,3.24,2.66a4.26,4.26,0,0,0,2.36-.71.82.82,0,0,1,1.12.16l.17.2A.77.77,0,0,1,494,82a5.8,5.8,0,0,1-3.61,1.13C486.94,83.14,484.86,80.91,484.86,78.16ZM492.73,77a2.45,2.45,0,0,0-2.61-1.89A2.71,2.71,0,0,0,487.34,77Z" transform="translate(-5.49 -5.97)"></path><path class="cls-1" d="M496.31,78.13a4.72,4.72,0,0,1,4.69-5,3.76,3.76,0,0,1,3.26,1.65v-.63a.73.73,0,0,1,.79-.81h.84a.74.74,0,0,1,.81.81v8a.73.73,0,0,1-.81.79h-.84a.71.71,0,0,1-.79-.79v-.65A3.76,3.76,0,0,1,501,83.14,4.72,4.72,0,0,1,496.31,78.13Zm8,0a2.81,2.81,0,0,0-2.82-3,3,3,0,0,0,0,6A2.81,2.81,0,0,0,504.3,78.13Z" transform="translate(-5.49 -5.97)"></path><path class="cls-1" d="M509.84,79.81V75.17h-1.06a.39.39,0,0,1-.43-.43v-1a.39.39,0,0,1,.43-.43H510l.34-2.07a.61.61,0,0,1,.66-.56h.66a.57.57,0,0,1,.63.62v2h2.38a.4.4,0,0,1,.44.43v1a.39.39,0,0,1-.44.43h-2.38v4.74c0,.87.43,1.21.94,1.21a.92.92,0,0,0,1-1,2.18,2.18,0,0,0,0-.34c0-.3.06-.47.36-.47h1c.25,0,.44.09.49.34a3.57,3.57,0,0,1,.1.72c0,1.77-1.25,2.72-3.05,2.72C511.45,83.14,509.84,82.38,509.84,79.81Z" transform="translate(-5.49 -5.97)"></path><path class="cls-1" d="M522.43,82.14V70a.72.72,0,0,1,.8-.79h.85a.71.71,0,0,1,.79.79v12.1a.71.71,0,0,1-.79.79h-.85A.72.72,0,0,1,522.43,82.14Z" transform="translate(-5.49 -5.97)"></path><path class="cls-1" d="M526.86,78.13a5.2,5.2,0,1,1,5.19,5A5.06,5.06,0,0,1,526.86,78.13Zm8,0a2.84,2.84,0,1,0-2.84,3A2.9,2.9,0,0,0,534.89,78.14Z" transform="translate(-5.49 -5.97)"></path><path class="cls-1" d="M538.54,78.2c0-2.8,2-5.09,5.49-5.09a5.86,5.86,0,0,1,3,.81.69.69,0,0,1,.19,1.12l-.23.28c-.3.42-.64.44-1.11.21a3.85,3.85,0,0,0-1.67-.38,3,3,0,1,0,0,6,4.18,4.18,0,0,0,1.67-.38c.47-.23.83-.21,1.11.19l.23.3c.3.42.21.91-.42,1.23a5.65,5.65,0,0,1-2.72.68C540.66,83.14,538.54,81,538.54,78.2Z" transform="translate(-5.49 -5.97)"></path><path class="cls-1" d="M548.55,78.13a4.72,4.72,0,0,1,4.7-5,3.75,3.75,0,0,1,3.25,1.65v-.63a.73.73,0,0,1,.8-.81h.83a.74.74,0,0,1,.81.81v8a.73.73,0,0,1-.81.79h-.83a.72.72,0,0,1-.8-.79v-.65a3.75,3.75,0,0,1-3.25,1.65A4.72,4.72,0,0,1,548.55,78.13Zm8,0a2.81,2.81,0,0,0-2.82-3,3,3,0,0,0,0,6A2.81,2.81,0,0,0,556.54,78.13Z" transform="translate(-5.49 -5.97)"></path><path class="cls-1" d="M561.58,82.14V70a.71.71,0,0,1,.79-.79h.85a.72.72,0,0,1,.8.79v12.1a.72.72,0,0,1-.8.79h-.85A.71.71,0,0,1,561.58,82.14Z" transform="translate(-5.49 -5.97)"></path><path class="cls-2" d="M79.29,143.32l2-2.34A77.38,77.38,0,0,0,91,126.39a87.51,87.51,0,0,0,8-23.09,86.45,86.45,0,0,0,1.5-10.86c.16-2.32.25-4.65.34-7,0-1.08,0-2.16.09-3.29l.33.42a26.85,26.85,0,0,0,9.81,8.2,24.58,24.58,0,0,0,12.67,2.48,25.4,25.4,0,0,0,15.58-6.8A27.86,27.86,0,0,0,143,82.31l.26-.33c.34,2.23-2.24,13.25-4.39,18.7a67.56,67.56,0,0,1-59.6,42.64Z" transform="translate(-5.49 -5.97)"></path><path class="cls-2" d="M51,82.36c0,.53,0,1,0,1.45.09,2.51.11,5,.31,7.52.21,2.67.52,5.34.9,8A86.54,86.54,0,0,0,55.31,113a80.66,80.66,0,0,0,13,25.22c1.22,1.6,2.56,3.11,3.85,4.66l.38.44A67.61,67.61,0,0,1,8.65,82C14,89.07,20.82,93.22,29.72,93.29S45.5,89.27,51,82.36Z" transform="translate(-5.49 -5.97)"></path><path class="cls-2" d="M75.88,142.66c-.62-.66-1.23-1.31-1.82-2A76.37,76.37,0,0,1,60,117.54a88.77,88.77,0,0,1-4.68-16.86c-.56-3.21-.95-6.45-1.19-9.7s-.28-6.52-.21-9.78a.42.42,0,0,1,.1-.28l.32.47A27.2,27.2,0,0,0,64,90.31a24.46,24.46,0,0,0,9.76,2.92c7.81.6,14.44-2,20.07-7.37A26.57,26.57,0,0,0,97.6,81.4c.07-.1.15-.19.27-.34a2.47,2.47,0,0,1,0,.38c0,2.73,0,5.46-.16,8.18-.08,1.93-.29,3.85-.49,5.77a83.22,83.22,0,0,1-1.59,9.43,85.25,85.25,0,0,1-6.13,18,75.23,75.23,0,0,1-13.37,19.57C76.1,142.47,76,142.55,75.88,142.66Z" transform="translate(-5.49 -5.97)"></path><path class="cls-3" d="M57.06,80.34c-.5-.83-1.05-1.65-1.51-2.51s-.83-1.69-1.22-2.55a1.56,1.56,0,0,0-1.44-1,1.66,1.66,0,0,0-1.43,1.12A9.6,9.6,0,0,1,51,76.69a25.81,25.81,0,0,1-7.38,9l-.27.18a.08.08,0,0,1,0,0C43,85,42.71,84,42.36,83.14a14.56,14.56,0,0,0-4.83-6.32A1.35,1.35,0,0,1,37,76c-.76-2.91-1.53-5.82-2.28-8.73a1,1,0,0,1,.07-.69,11.63,11.63,0,0,0,1.09-6.67,17.48,17.48,0,0,0-1.09-4.62,1.53,1.53,0,0,0-2-1.13l-1.47.25c0-.13-.09-.28-.13-.43-1.3-4.92-2.62-9.84-3.89-14.76A10.16,10.16,0,0,1,34.69,27c1.38-.36,2.75-.78,4.15-1a9.72,9.72,0,0,1,8,2.29,11,11,0,0,1,3.53,6.06c2.4,9.23,4.85,18.44,7.28,27.66.44,1.67.88,3.33,1.31,5a.62.62,0,0,1-.05.45,9,9,0,0,0-1.64,5.66c0,2.33,0,4.66-.08,7a1.64,1.64,0,0,1,0,.22ZM33.64,47.6a1.41,1.41,0,0,0,.79,1.24A1.44,1.44,0,0,0,36,48.66l10.77-7.91a1.45,1.45,0,1,0-1.72-2.33l-2.85,2.09-7.86,5.77A1.59,1.59,0,0,0,33.64,47.6Zm4.47,12a5.34,5.34,0,0,0,1-.47c2.06-1.49,4.1-3,6.14-4.49l4.61-3.39a1.45,1.45,0,1,0-1.73-2.32c-2.22,1.62-4.44,3.26-6.66,4.89l-4.17,3.07a1.42,1.42,0,0,0-.54,1.67A1.62,1.62,0,0,0,38.11,59.56Zm3,10.47a7.29,7.29,0,0,0,1-.48c1.1-.79,2.19-1.6,3.28-2.4l7.42-5.46a1.45,1.45,0,1,0-1.68-2.35c-1.88,1.37-3.76,2.76-5.63,4.14S42,66,40.25,67.32A1.45,1.45,0,0,0,39.7,69,1.59,1.59,0,0,0,41.13,70Z" transform="translate(-5.49 -5.97)"></path><path class="cls-4" d="M110.64,87.33c1-1.48,2-2.84,2.83-4.28a17.32,17.32,0,0,0,2.36-7.16,1.46,1.46,0,0,0-2.59-1.21,14.94,14.94,0,0,1-9.31,4.49l-.62,0s-.07,0-.15,0c.23-.8.45-1.6.68-2.4.68-2.31,1.37-4.62,2-6.94a7.82,7.82,0,0,0-.35-5.22c-.06-.14-.11-.28-.19-.48.72-.16,1.42-.33,2.13-.46a28.84,28.84,0,0,1,5.64-.48c.63,0,1.26.07,1.88.13,1,.09,1.64-.3,1.81-1.14a1.14,1.14,0,0,0,0-.52,12.45,12.45,0,0,1,.66-7.14,18.34,18.34,0,0,1,4.88-7.17A5.56,5.56,0,0,1,126,45.68a6.11,6.11,0,0,1,2.66.59c1.06.47,2.1,1,3.15,1.5a49.91,49.91,0,0,0,6.59,2.4l2,.64A1.93,1.93,0,0,1,140,51a21.3,21.3,0,0,1-5.49,1.45,5.15,5.15,0,0,1-1.11,0,1.48,1.48,0,0,0-1.64.94,1.51,1.51,0,0,0,.69,1.77,26.78,26.78,0,0,1,2.38,1.68,5.4,5.4,0,0,1,1.19,1.45,1.71,1.71,0,0,1-1.35,2.44,3.58,3.58,0,0,1-2-.46,12.31,12.31,0,0,1-3.31-2.46,1.62,1.62,0,0,0-1.27-.58,1.36,1.36,0,0,0-1.25.85,1.39,1.39,0,0,0,.28,1.6c.63.67,1.29,1.31,1.9,2A32.48,32.48,0,0,1,136.83,77a24.77,24.77,0,0,1,.51,7,.82.82,0,0,1-.28.54,22.67,22.67,0,0,1-12.45,5.73,21.82,21.82,0,0,1-7.64-.43l-.26-.08.39-.35a19.92,19.92,0,0,0,6.45-9.91,18,18,0,0,0,.53-7.2,1.47,1.47,0,0,0-2.36-1.15,1.33,1.33,0,0,0-.55,1.3,15.67,15.67,0,0,1-4.29,13.13,42,42,0,0,1-3.23,2.86.5.5,0,0,1-.63.07ZM130.35,50a1.66,1.66,0,1,0-1.63,1.7A1.65,1.65,0,0,0,130.35,50Z" transform="translate(-5.49 -5.97)"></path><path class="cls-2" d="M109.35,34.31c-.09.47-.16.94-.27,1.41a1.47,1.47,0,0,0,.85,1.83,4.27,4.27,0,0,1-.26,7.78l-.44.21a1.46,1.46,0,0,0-.42,2.49,4.08,4.08,0,0,1,1,4.46,4,4,0,0,1-3.38,2.78,4.12,4.12,0,0,1-4.2-1.91.9.9,0,0,1-.1-.64c1.19-5.22,2.41-10.42,3.62-15.63a1.47,1.47,0,0,0-1-1.87,1.45,1.45,0,0,0-1.79,1.2L99.32,52.09a.92.92,0,0,1-.51.73A4.27,4.27,0,1,1,95.5,45c.85-.31,1.27-.83,1.15-1.57a2.41,2.41,0,0,0-.51-1,5.13,5.13,0,0,1-1.12-2A4.28,4.28,0,0,1,99,35c1.16,0,1.52-.35,1.76-1.52a4.32,4.32,0,0,1,8.56.79Z" transform="translate(-5.49 -5.97)"></path><path class="cls-4" d="M85,81.45c0,1.12,0,2.16,0,3.2s0,2.28,0,3.42a.57.57,0,0,1-.41.61,21.7,21.7,0,0,1-9.83,1.74A22.55,22.55,0,0,1,60.23,84a.62.62,0,0,1-.18-.41c0-.69,0-1.38,0-2.06,0-.26.09-.32.34-.32l4.69,0a1.4,1.4,0,0,0,1.57-1.49,6,6,0,0,1,11.94-.46c0,.21,0,.41,0,.62a1.44,1.44,0,0,0,1.59,1.53l4,0Z" transform="translate(-5.49 -5.97)"></path><path class="cls-5" d="M30.17,90.45a22.62,22.62,0,0,1-13.5-4.39.41.41,0,0,1-.18-.55c1.58-4.86,4.85-7.9,9.9-8.74A12.22,12.22,0,0,1,40.46,86.9c.13.78.13.79-.57,1.14a21.55,21.55,0,0,1-8.11,2.32C31.16,90.41,30.55,90.43,30.17,90.45Zm-2.07-10a7.71,7.71,0,0,0-2.89.53,1.42,1.42,0,0,0-.91,1.68,1.43,1.43,0,0,0,2,1,5.09,5.09,0,0,1,2.25-.32,5.15,5.15,0,0,1,4.32,3.24,1.87,1.87,0,0,0,.73.77,1.33,1.33,0,0,0,1.6-.25,1.44,1.44,0,0,0,.31-1.66A8,8,0,0,0,28.1,80.47Z" transform="translate(-5.49 -5.97)"></path><path class="cls-6" d="M102.88,69.65l-2-.48-2.3-.58a1.45,1.45,0,1,0-.69,2.8l3.9,1,.24.08a1,1,0,0,1,0,.17c-.36,1.24-.72,2.49-1.17,3.77-.16-.34-.31-.68-.46-1A1.49,1.49,0,0,0,99,74.31a1.61,1.61,0,0,0-1.43,1.17,23.07,23.07,0,0,1-2.75,4.89,25,25,0,0,1-6.53,6.31l-.35.21a61.57,61.57,0,0,1,.33-9.45l2.32.59,1.58.41a1.45,1.45,0,1,0,.73-2.8l-4.13-1c.1-.56.19-1.1.29-1.65.43-2.24.85-4.49,1.29-6.73A5.26,5.26,0,0,1,96.64,62c.92.2,1.84.41,2.75.66A5.25,5.25,0,0,1,103,69.46Z" transform="translate(-5.49 -5.97)"></path><path class="cls-2" d="M63.9,78.3c-1.17,0-2.3,0-3.44,0-.81,0-.81-.08-.8-.89,0-1.75,0-3.51.06-5.26a5.62,5.62,0,0,1,5.57-5.43c3.61,0,7.21.07,10.82.11l3.82.06a5.58,5.58,0,0,1,5.47,5.47c0,2,0,4-.07,6a.89.89,0,0,1,0,.19H83l-1.24,0c-.24,0-.35-.06-.4-.32A8.87,8.87,0,0,0,64,77.75C64,77.92,64,78.1,63.9,78.3Z" transform="translate(-5.49 -5.97)"></path><path class="cls-2" d="M77.62,52.65H75.23c0-.17,0-.31,0-.46q0-15.66,0-31.32A12.13,12.13,0,0,1,85.11,9a11.89,11.89,0,0,1,13.38,8.42c.07.25.13.51.18.76a1.24,1.24,0,0,1-2.4.64,10.32,10.32,0,0,0-1.57-3.06,9.43,9.43,0,0,0-13.85-1.27,9.67,9.67,0,0,0-3.23,7.38q0,15.06,0,30.13Z" transform="translate(-5.49 -5.97)"></path><path class="cls-5" d="M132.43,44.82c-1.13-.5-2.19-1-3.28-1.44a8,8,0,0,0-8.71,1.8c-.83.76-1.55,1.65-2.34,2.47-.09.1-.28.22-.38.19a9,9,0,0,1-3.6-2.07.46.46,0,0,1-.09-.4,7.36,7.36,0,0,0,1-5.54,1.55,1.55,0,0,1,1.33,0,7.21,7.21,0,0,1,3.19,2.37,1.74,1.74,0,0,0,1,.71,1.45,1.45,0,0,0,1.48-.59,1.42,1.42,0,0,0,0-1.59,14.31,14.31,0,0,1-.77-1.3,1.94,1.94,0,0,1,.69-2.73,5.42,5.42,0,0,1,1.68-.8,1.79,1.79,0,0,1,2,.86A6.89,6.89,0,0,1,126.9,40a1.49,1.49,0,0,0,.88,1.33,1.3,1.3,0,0,0,1.46-.18,2.3,2.3,0,0,0,.52-.81c.25-.63.39-1.32.69-1.92a2,2,0,0,1,2.6-1.1,10.09,10.09,0,0,1,1.19.46,1.56,1.56,0,0,1,1,2,10.44,10.44,0,0,1-1.87,3.81C133.09,44,132.75,44.39,132.43,44.82Z" transform="translate(-5.49 -5.97)"></path><path class="cls-2" d="M32.39,57.2a11.59,11.59,0,0,1,.23,7.15,6.71,6.71,0,0,1-4.47,4.16,24.27,24.27,0,0,1-2.54.66c-.11,0-.34-.07-.37-.16a10,10,0,0,1-.62-6,6.55,6.55,0,0,1,2.82-3.86A13.05,13.05,0,0,1,32.39,57.2Z" transform="translate(-5.49 -5.97)"></path><path class="cls-2" d="M14.38,62.24A7.37,7.37,0,0,1,19,63.55a7.35,7.35,0,0,1,2.57,3.73c.25.76.42,1.55.6,2.34,0,.16.12.38-.15.48a11,11,0,0,1-5.43.71,6.51,6.51,0,0,1-4.21-2.7,13.15,13.15,0,0,1-2.12-4.9c-.06-.23,0-.31.24-.37A14,14,0,0,1,14.38,62.24Z" transform="translate(-5.49 -5.97)"></path><path class="cls-4" d="M75.74,55.54c1.55,0,3.09,0,4.64.06a2,2,0,0,1,2,1.66,1.2,1.2,0,0,1-.65,1.38,3.49,3.49,0,0,1-1.38.33c-2.46,0-4.93,0-7.39-.08l-7.81-.09a3.64,3.64,0,0,1-.74-.07,1.41,1.41,0,0,1-1.26-1.08,1.74,1.74,0,0,1,.79-1.86A2.33,2.33,0,0,1,65,55.45C65.61,55.39,72.79,55.53,75.74,55.54Z" transform="translate(-5.49 -5.97)"></path><path class="cls-4" d="M65.51,64.16V61.68l14.4.18v2.48Z" transform="translate(-5.49 -5.97)"></path><path class="cls-4" d="M108.14,85.58A24.48,24.48,0,0,1,104.48,82,17.91,17.91,0,0,0,112,79.35,21.08,21.08,0,0,1,108.14,85.58Z" transform="translate(-5.49 -5.97)"></path><path class="cls-1" d="M33.64,47.6a1.59,1.59,0,0,1,.74-1.32l7.86-5.77,2.85-2.09a1.45,1.45,0,1,1,1.72,2.33L36,48.66a1.44,1.44,0,0,1-1.61.18A1.41,1.41,0,0,1,33.64,47.6Z" transform="translate(-5.49 -5.97)"></path><path class="cls-1" d="M38.11,59.56a1.62,1.62,0,0,1-1.39-1,1.42,1.42,0,0,1,.54-1.67l4.17-3.07c2.22-1.63,4.44-3.27,6.66-4.89a1.45,1.45,0,1,1,1.73,2.32L45.21,54.6c-2,1.5-4.08,3-6.14,4.49A5.34,5.34,0,0,1,38.11,59.56Z" transform="translate(-5.49 -5.97)"></path><path class="cls-1" d="M41.13,70a1.59,1.59,0,0,1-1.43-1,1.45,1.45,0,0,1,.55-1.67C42,66,43.74,64.76,45.49,63.48s3.75-2.77,5.63-4.14a1.45,1.45,0,1,1,1.68,2.35l-7.42,5.46c-1.09.8-2.18,1.61-3.28,2.4A7.29,7.29,0,0,1,41.13,70Z" transform="translate(-5.49 -5.97)"></path><path class="cls-1" d="M130.35,50a1.66,1.66,0,1,1-1.68-1.65A1.65,1.65,0,0,1,130.35,50Z" transform="translate(-5.49 -5.97)"></path><path class="cls-1" d="M28.1,80.47a8,8,0,0,1,7.37,5,1.44,1.44,0,0,1-.31,1.66,1.33,1.33,0,0,1-1.6.25,1.87,1.87,0,0,1-.73-.77,5.15,5.15,0,0,0-4.32-3.24,5.09,5.09,0,0,0-2.25.32,1.43,1.43,0,0,1-2-1A1.42,1.42,0,0,1,25.21,81,7.71,7.71,0,0,1,28.1,80.47Z" transform="translate(-5.49 -5.97)"></path><path class="cls-1" d="M146.5,75.6a1.33,1.33,0,0,0-1.31-1.27,1.48,1.48,0,0,0-1.52,1.06,25.57,25.57,0,0,1-3.2,5.49,1.4,1.4,0,0,1-.21.2,34.92,34.92,0,0,0-5.95-17.4l.29,0A4.84,4.84,0,0,0,139,60.2a4.79,4.79,0,0,0-1.11-4.4c-.23-.28-.47-.55-.72-.84a.75.75,0,0,1,.19-.09,38.68,38.68,0,0,0,7.77-3,1.46,1.46,0,0,0,.92-1.46,1.5,1.5,0,0,0-1.21-1.33l-8.47-2.62c-.4-.13-.79-.28-1.22-.43l.44-.62a12.71,12.71,0,0,0,2.52-5.29,4.27,4.27,0,0,0-1.46-4.29,7.4,7.4,0,0,0-2.84-1.36,4.83,4.83,0,0,0-5,1.2.94.94,0,0,1-.19.14l-.23-.38A4.72,4.72,0,0,0,123.25,33a5.91,5.91,0,0,0-4.93,4.17.59.59,0,0,1-.1.17.42.42,0,0,1-.13,0,5.25,5.25,0,0,0-4-.23c-.09,0-.27,0-.35-.13-.47-.43-.92-.87-1.36-1.32a.77.77,0,0,1-.19-.44,19.4,19.4,0,0,0-.09-2.16,7.16,7.16,0,0,0-13.74-1.28.81.81,0,0,1-.71.58,7.11,7.11,0,0,0-5.45,8.38A23,23,0,0,0,92.91,43c-2.65,2-3.84,4.7-2.83,8,1.24,4,4.24,5.48,8.31,5.08l-.75,3.21a3.32,3.32,0,0,1-.41-.06,7.69,7.69,0,0,0-4.6.34,8,8,0,0,0-5.24,6.57c-.13.73-.28,1.45-.44,2.28a8.5,8.5,0,0,0-4-3.47.45.45,0,0,1-.18-.36c0-1,0-2,.06-3a.66.66,0,0,1,.24-.37A9.7,9.7,0,0,0,84.4,60a4.59,4.59,0,0,0-1.7-6.73,17.39,17.39,0,0,0-2.18-.74v-.38q0-15.25,0-30.5a6.63,6.63,0,0,1,13-1.87,4.11,4.11,0,0,0,5,2.66,4.16,4.16,0,0,0,3-4.89A14.77,14.77,0,0,0,83.43,6.45a15,15,0,0,0-11.1,14.43V52.59H69.77c-1.43,0-2.85,0-4.28-.05a5.2,5.2,0,0,0-3.43,1c-2.52,1.91-2.55,6,.32,7.52a.61.61,0,0,1,.23.41c0,1,0,2,0,2.92a.46.46,0,0,1-.19.35,9.59,9.59,0,0,1-.91.42c0-.15-.09-.27-.12-.4q-.64-2.43-1.28-4.84-3.53-13.37-7-26.71a13.23,13.23,0,0,0-4.72-7.46,12.51,12.51,0,0,0-9.87-2.64,45.45,45.45,0,0,0-4.55,1.07,13,13,0,0,0-9.4,15.66c1,4.27,2.22,8.5,3.33,12.75l.72,2.74c-3.19,1.35-5.67,3.37-6.71,6.83-.18-.15-.3-.28-.44-.38A23.56,23.56,0,0,0,19,60.23a10.59,10.59,0,0,0-5.25-.86,17.93,17.93,0,0,0-5.59,1.25,1.39,1.39,0,0,0-.95,1.55c.22,1.09.41,2.18.73,3.24a12.87,12.87,0,0,0,3.35,5.77,9.67,9.67,0,0,0,9,2.4c1-.18,1.93-.48,2.93-.73l.45,1.59A15.39,15.39,0,0,0,14,83.87a5.86,5.86,0,0,0-.34-.48A25.84,25.84,0,0,1,8.29,75.3a1.46,1.46,0,0,0-1.62-1,1.4,1.4,0,0,0-1.18,1.55c.07,1.91.12,3.83.24,5.75A63.7,63.7,0,0,0,7,90.52a70.66,70.66,0,0,0,47.29,52.37A69.18,69.18,0,0,0,74,146.25c.23,0,.46,0,.7.07V149a1.45,1.45,0,0,0,2.89,0h0c0-.09,0-2.52,0-2.73l.88,0a68.56,68.56,0,0,0,16.36-2.5,70.56,70.56,0,0,0,50.33-54.38,62.2,62.2,0,0,0,1.1-8.38C146.4,79.49,146.51,75.63,146.5,75.6ZM22,70.1a11,11,0,0,1-5.43.71,6.51,6.51,0,0,1-4.21-2.7,13.15,13.15,0,0,1-2.12-4.9c-.06-.23,0-.31.24-.37a14,14,0,0,1,3.87-.6A7.37,7.37,0,0,1,19,63.55a7.35,7.35,0,0,1,2.57,3.73c.25.76.42,1.55.6,2.34C22.22,69.78,22.3,70,22,70.1ZM138.35,50.17l2,.64A1.93,1.93,0,0,1,140,51a21.3,21.3,0,0,1-5.49,1.45,5.15,5.15,0,0,1-1.11,0,1.48,1.48,0,0,0-1.64.94,1.51,1.51,0,0,0,.69,1.77,26.78,26.78,0,0,1,2.38,1.68,5.4,5.4,0,0,1,1.19,1.45,1.71,1.71,0,0,1-1.35,2.44,3.58,3.58,0,0,1-2-.46,12.31,12.31,0,0,1-3.31-2.46,1.62,1.62,0,0,0-1.27-.58,1.36,1.36,0,0,0-1.25.85,1.39,1.39,0,0,0,.28,1.6c.63.67,1.29,1.31,1.9,2A32.48,32.48,0,0,1,136.83,77a24.77,24.77,0,0,1,.51,7,.82.82,0,0,1-.28.54,22.67,22.67,0,0,1-12.45,5.73,21.82,21.82,0,0,1-7.64-.43l-.26-.08.39-.35a19.92,19.92,0,0,0,6.45-9.91,18,18,0,0,0,.53-7.2,1.47,1.47,0,0,0-2.36-1.15,1.33,1.33,0,0,0-.55,1.3,15.67,15.67,0,0,1-4.29,13.13,42,42,0,0,1-3.23,2.86.5.5,0,0,1-.63.07l-2.38-1.2c1-1.48,2-2.84,2.83-4.28a17.32,17.32,0,0,0,2.36-7.16,1.46,1.46,0,0,0-2.59-1.21,14.94,14.94,0,0,1-9.31,4.49l-.62,0s-.07,0-.15,0c.23-.8.45-1.6.68-2.4.68-2.31,1.37-4.62,2-6.94a7.82,7.82,0,0,0-.35-5.22c-.06-.14-.11-.28-.19-.48.72-.16,1.42-.33,2.13-.46a28.84,28.84,0,0,1,5.64-.48c.63,0,1.26.07,1.88.13,1,.09,1.64-.3,1.81-1.14a1.14,1.14,0,0,0,0-.52,12.45,12.45,0,0,1,.66-7.14,18.34,18.34,0,0,1,4.88-7.17A5.56,5.56,0,0,1,126,45.68a6.11,6.11,0,0,1,2.66.59c1.06.47,2.1,1,3.15,1.5A49.91,49.91,0,0,0,138.35,50.17ZM108.14,85.58A24.48,24.48,0,0,1,104.48,82,17.91,17.91,0,0,0,112,79.35,21.08,21.08,0,0,1,108.14,85.58ZM114,45.37a7.36,7.36,0,0,0,1-5.54,1.59,1.59,0,0,1,1.33,0,7.21,7.21,0,0,1,3.19,2.37,1.74,1.74,0,0,0,1,.71,1.45,1.45,0,0,0,1.48-.59,1.42,1.42,0,0,0,0-1.59,14.31,14.31,0,0,1-.77-1.3,1.94,1.94,0,0,1,.69-2.73,5.42,5.42,0,0,1,1.68-.8,1.79,1.79,0,0,1,2,.86A6.89,6.89,0,0,1,126.9,40a1.49,1.49,0,0,0,.88,1.33,1.3,1.3,0,0,0,1.46-.18,2.3,2.3,0,0,0,.52-.81c.25-.63.39-1.32.69-1.92a2,2,0,0,1,2.6-1.1,10.09,10.09,0,0,1,1.19.46,1.56,1.56,0,0,1,1,2,10.44,10.44,0,0,1-1.87,3.81c-.3.44-.64.85-1,1.28-1.13-.5-2.19-1-3.28-1.44a8,8,0,0,0-8.71,1.8c-.83.76-1.55,1.65-2.34,2.47-.09.1-.28.22-.38.19a9,9,0,0,1-3.6-2.07A.46.46,0,0,1,114,45.37Zm-1.54,3,3.66,2.11a18.11,18.11,0,0,0-2.49,9.85c-.71,0-1.37,0-2,0a33.63,33.63,0,0,0-7.85,1.23.66.66,0,0,1-.52-.05,8.7,8.7,0,0,0-2.67-1.5.35.35,0,0,1-.12-.08c.25-1.1.51-2.19.77-3.31,3.07,2.09,6.17,2.31,9.09,0C113,54.41,113.54,51.5,112.49,48.37ZM93,50.67A4.26,4.26,0,0,1,95.5,45c.85-.31,1.27-.83,1.15-1.57a2.41,2.41,0,0,0-.51-1,5.13,5.13,0,0,1-1.12-2A4.28,4.28,0,0,1,99,35c1.16,0,1.52-.35,1.76-1.52a4.33,4.33,0,0,1,4-3.51,4.38,4.38,0,0,1,4.54,4.3c-.09.47-.16.94-.27,1.41a1.47,1.47,0,0,0,.85,1.83,4.27,4.27,0,0,1-.26,7.78l-.44.21a1.46,1.46,0,0,0-.42,2.49,4.08,4.08,0,0,1,1,4.46,4,4,0,0,1-3.38,2.78,4.12,4.12,0,0,1-4.2-1.91.9.9,0,0,1-.1-.64c1.19-5.22,2.41-10.42,3.62-15.63a1.47,1.47,0,0,0-1-1.87,1.45,1.45,0,0,0-1.79,1.2L99.32,52.09a.92.92,0,0,1-.51.73A4.29,4.29,0,0,1,93,50.67ZM88.24,77.44l2.32.59,1.58.41a1.45,1.45,0,1,0,.73-2.8l-4.13-1c.1-.56.19-1.1.29-1.65.43-2.24.85-4.49,1.29-6.73A5.26,5.26,0,0,1,96.64,62c.92.2,1.84.41,2.75.66A5.25,5.25,0,0,1,103,69.46l-.08.19-2-.48-2.3-.58a1.45,1.45,0,1,0-.69,2.8l3.9,1,.24.08a1,1,0,0,1,0,.17c-.36,1.24-.72,2.49-1.17,3.77-.16-.34-.31-.68-.46-1A1.49,1.49,0,0,0,99,74.31a1.61,1.61,0,0,0-1.43,1.17,23.07,23.07,0,0,1-2.75,4.89,25,25,0,0,1-6.53,6.31l-.35.21A61.57,61.57,0,0,1,88.24,77.44Zm-13-56.57A12.13,12.13,0,0,1,85.11,9a11.89,11.89,0,0,1,13.38,8.42c.07.25.13.51.18.76a1.24,1.24,0,0,1-2.4.64,10.32,10.32,0,0,0-1.57-3.06,9.43,9.43,0,0,0-13.85-1.27,9.67,9.67,0,0,0-3.23,7.38q0,15.06,0,30.13v.62H75.23c0-.17,0-.31,0-.46Q75.21,36.53,75.22,20.87ZM63.9,55.79A2.33,2.33,0,0,1,65,55.45c.64-.06,7.82.08,10.77.09,1.55,0,3.09,0,4.64.06a2,2,0,0,1,2,1.66,1.2,1.2,0,0,1-.65,1.38,3.49,3.49,0,0,1-1.38.33c-2.46,0-4.93,0-7.39-.08l-7.81-.09a3.64,3.64,0,0,1-.74-.07,1.41,1.41,0,0,1-1.26-1.08A1.74,1.74,0,0,1,63.9,55.79Zm16,6.07v2.48l-14.4-.18V61.68ZM59.66,77.4c0-1.75,0-3.51.06-5.26a5.62,5.62,0,0,1,5.57-5.43c3.61,0,7.21.07,10.82.11l3.82.06a5.58,5.58,0,0,1,5.47,5.47c0,2,0,4-.07,6a.89.89,0,0,1,0,.19H83l-1.24,0c-.24,0-.35-.06-.4-.32A8.87,8.87,0,0,0,64,77.75c0,.17-.07.35-.12.55-1.17,0-2.3,0-3.44,0C59.65,78.26,59.65,78.21,59.66,77.4ZM85,84.65c0,1.14,0,2.28,0,3.42a.57.57,0,0,1-.41.61,21.7,21.7,0,0,1-9.83,1.74A22.55,22.55,0,0,1,60.23,84a.62.62,0,0,1-.18-.41c0-.69,0-1.38,0-2.06,0-.26.09-.32.34-.32l4.69,0a1.4,1.4,0,0,0,1.57-1.49,6,6,0,0,1,11.94-.46c0,.21,0,.41,0,.62a1.44,1.44,0,0,0,1.59,1.53l4,0H85C85,82.57,85,83.61,85,84.65ZM27.32,39.25A10.16,10.16,0,0,1,34.69,27c1.38-.36,2.75-.78,4.15-1a9.72,9.72,0,0,1,8,2.29,11,11,0,0,1,3.53,6.06c2.4,9.23,4.85,18.44,7.28,27.66.44,1.67.88,3.33,1.31,5a.62.62,0,0,1-.05.45,9,9,0,0,0-1.64,5.66c0,2.33,0,4.66-.08,7a1.64,1.64,0,0,1,0,.22l-.1,0c-.5-.83-1.05-1.65-1.51-2.51s-.83-1.69-1.22-2.55a1.56,1.56,0,0,0-1.44-1,1.66,1.66,0,0,0-1.43,1.12A9.6,9.6,0,0,1,51,76.69a25.81,25.81,0,0,1-7.38,9l-.27.18a.08.08,0,0,1,0,0C43,85,42.71,84,42.36,83.14a14.56,14.56,0,0,0-4.83-6.32A1.35,1.35,0,0,1,37,76c-.76-2.91-1.53-5.82-2.28-8.73a1,1,0,0,1,.07-.69,11.63,11.63,0,0,0,1.09-6.67,17.48,17.48,0,0,0-1.09-4.62,1.53,1.53,0,0,0-2-1.13l-1.47.25c0-.13-.09-.28-.13-.43C29.91,49.09,28.59,44.17,27.32,39.25Zm6.34,35.41a15.46,15.46,0,0,0-7.25-.84l-.51-1.75a14.39,14.39,0,0,0,6.41-2.53Zm-9-11.6a6.55,6.55,0,0,1,2.82-3.86,13.05,13.05,0,0,1,4.95-2,11.59,11.59,0,0,1,.23,7.15,6.71,6.71,0,0,1-4.47,4.16,24.27,24.27,0,0,1-2.54.66c-.11,0-.34-.07-.37-.16A10,10,0,0,1,24.62,63.06ZM16.49,85.51c1.58-4.86,4.85-7.9,9.9-8.74A12.22,12.22,0,0,1,40.46,86.9c.13.78.13.79-.57,1.14a21.55,21.55,0,0,1-8.11,2.32c-.62,0-1.23.07-1.61.09a22.62,22.62,0,0,1-13.5-4.39A.41.41,0,0,1,16.49,85.51Zm32.66,52.35A67.63,67.63,0,0,1,8.65,82C14,89.07,20.82,93.22,29.72,93.29S45.5,89.27,51,82.36c0,.53,0,1,0,1.45.09,2.51.11,5,.31,7.52.21,2.67.52,5.34.9,8A86.54,86.54,0,0,0,55.31,113a80.66,80.66,0,0,0,13,25.22c1.22,1.6,2.56,3.11,3.85,4.66l.38.44A67.08,67.08,0,0,1,49.15,137.86Zm27,4.52c-.08.09-.18.17-.3.28-.62-.66-1.23-1.31-1.82-2A76.37,76.37,0,0,1,60,117.54a88.77,88.77,0,0,1-4.68-16.86c-.56-3.21-.95-6.45-1.19-9.7s-.28-6.52-.21-9.78a.42.42,0,0,1,.1-.28l.32.47A27.2,27.2,0,0,0,64,90.31a24.46,24.46,0,0,0,9.76,2.92c7.81.6,14.44-2,20.07-7.37A26.57,26.57,0,0,0,97.6,81.4c.07-.1.15-.19.27-.34a2.47,2.47,0,0,1,0,.38c0,2.73,0,5.46-.16,8.18-.08,1.93-.29,3.85-.49,5.77a83.22,83.22,0,0,1-1.59,9.43,85.25,85.25,0,0,1-6.13,18A75.23,75.23,0,0,1,76.18,142.38Zm62.71-41.7a67.56,67.56,0,0,1-59.6,42.64l2-2.34A77.38,77.38,0,0,0,91,126.39a87.51,87.51,0,0,0,8-23.09,86.45,86.45,0,0,0,1.5-10.86c.16-2.32.25-4.65.34-7,0-1.08,0-2.16.09-3.29l.33.42a26.85,26.85,0,0,0,9.81,8.2,24.58,24.58,0,0,0,12.67,2.48,25.4,25.4,0,0,0,15.58-6.8A27.86,27.86,0,0,0,143,82.31l.26-.33C143.62,84.21,141,95.23,138.89,100.68Z" transform="translate(-5.49 -5.97)"></path></svg> 